<?xml version="1.0" standalone="no"?>
<!DOCTYPE svg PUBLIC "-//W3C//DTD SVG 20010904//EN"
 "http://www.w3.org/TR/2001/REC-SVG-20010904/DTD/svg10.dtd">
<svg version="1.0" xmlns="http://www.w3.org/2000/svg"
 width="1771.000000pt" height="1771.000000pt" viewBox="0 0 1771.000000 1771.000000"
 preserveAspectRatio="xMidYMid meet">
<metadata>
Created by potrace 1.11, written by Peter Selinger 2001-2013
</metadata>
<g transform="translate(0.000000,1771.000000) scale(0.100000,-0.100000)"
fill="#000000" stroke="none">
<path d="M7567 12679 c-39 -9 -111 -43 -133 -63 -7 -6 -34 -27 -59 -46 -79
-61 -246 -239 -427 -455 -208 -249 -204 -245 -246 -274 -23 -16 -45 -48 -71
-105 -45 -98 -90 -141 -215 -206 -150 -78 -226 -150 -242 -227 -4 -21 -14 -34
-28 -39 -11 -3 -49 -20 -84 -37 -127 -63 -244 -212 -375 -479 -154 -316 -178
-374 -247 -600 -7 -23 -5 -26 11 -25 10 1 19 5 19 9 0 8 -12 8 235 11 249 3
319 -12 378 -78 53 -58 67 -75 67 -80 0 -6 27 -39 58 -71 12 -13 22 -27 22
-32 0 -5 7 -16 16 -23 14 -11 88 -14 378 -14 352 -1 386 2 386 29 0 3 7 14 15
24 31 34 85 112 78 112 -3 0 4 9 17 20 13 11 20 20 17 20 -3 0 13 19 36 41 23
23 36 38 28 34 -9 -5 -12 -4 -7 3 4 7 14 12 22 12 8 0 14 4 14 10 0 11 142
153 191 190 18 14 43 35 55 48 13 12 28 22 33 22 6 0 15 8 20 18 6 9 11 13 11
9 0 -4 10 1 22 13 12 11 28 20 35 20 8 0 11 5 8 10 -3 6 1 10 9 10 9 0 25 9
35 19 11 11 22 16 26 13 4 -4 12 0 18 9 12 15 74 53 90 54 4 0 12 7 17 15 5 8
10 11 10 7 0 -5 12 0 28 11 15 11 30 21 34 22 4 1 17 4 28 7 11 3 20 10 20 16
0 6 3 8 6 4 3 -3 36 8 72 25 37 16 75 30 85 31 9 1 17 5 17 10 0 4 5 5 10 2 6
-3 10 -1 10 5 0 6 4 9 9 6 4 -3 32 3 62 14 47 17 104 32 174 44 11 2 47 9 80
16 107 20 147 23 355 23 212 1 281 -5 412 -31 26 -5 50 -7 53 -4 3 3 5 1 5 -4
0 -5 10 -11 23 -12 34 -3 43 -6 147 -37 3 -1 19 -5 35 -10 17 -4 35 -10 40
-14 6 -3 18 -7 28 -8 10 -2 31 -10 46 -18 16 -8 31 -11 35 -8 3 4 6 1 6 -5 0
-7 8 -12 18 -12 10 0 22 -3 26 -7 4 -5 11 -8 14 -8 4 -1 26 -11 49 -23 23 -12
49 -22 58 -22 8 0 15 -4 15 -8 0 -5 12 -14 28 -21 15 -7 45 -23 67 -36 22 -12
44 -22 48 -21 5 0 13 -7 18 -17 6 -9 26 -24 45 -32 18 -8 34 -18 34 -23 0 -5
14 -15 30 -22 17 -7 30 -17 30 -23 0 -6 3 -8 6 -5 3 3 15 -3 27 -14 12 -11 41
-37 65 -59 24 -21 46 -39 48 -39 3 0 39 -35 82 -78 l77 -78 420 0 c231 0 443
-4 470 -8 98 -14 140 -22 140 -26 0 -1 8 -3 18 -5 17 -3 17 -2 3 14 -9 10 -14
20 -11 23 3 3 -1 11 -10 18 -8 7 -15 19 -15 26 0 8 -5 14 -11 14 -5 0 -7 5 -4
10 3 6 2 10 -2 10 -5 0 -19 20 -31 45 -12 25 -27 45 -32 45 -6 0 -8 5 -5 10 3
6 -1 13 -9 16 -9 3 -14 10 -11 14 2 4 -6 19 -20 34 -13 14 -22 26 -19 26 3 0
-4 10 -16 22 -11 12 -20 25 -20 30 0 8 -22 37 -52 70 -10 10 -16 18 -13 18 7
0 -24 37 -65 78 -19 20 -28 32 -20 28 8 -4 -1 6 -20 23 -19 17 -30 31 -25 31
6 1 -2 8 -17 16 -16 8 -28 19 -28 25 0 9 -36 45 -195 200 -17 17 -34 27 -38
23 -4 -4 -7 1 -7 11 0 10 -3 16 -6 12 -3 -3 -17 4 -30 16 -42 40 -59 52 -66
49 -5 -1 -8 2 -8 8 0 5 -19 22 -42 37 -24 16 -52 36 -62 46 -11 9 -25 17 -32
17 -6 0 -14 7 -18 15 -3 8 -12 15 -21 15 -8 0 -15 5 -15 10 0 6 -5 10 -12 10
-6 0 -23 10 -36 23 -14 12 -22 15 -18 7 4 -8 -1 -6 -11 5 -10 11 -37 29 -60
39 -24 11 -43 23 -43 28 0 4 -7 8 -16 8 -9 0 -23 8 -31 18 -9 10 -11 11 -7 2
6 -13 5 -13 -12 0 -32 27 -121 70 -128 63 -3 -3 -6 -1 -6 5 0 7 -9 12 -20 12
-11 0 -20 4 -20 9 0 9 -48 26 -62 23 -5 -1 -8 2 -8 8 0 5 -8 10 -18 10 -10 0
-22 4 -28 10 -5 5 -18 11 -29 13 -11 2 -30 8 -41 15 -12 6 -24 8 -28 5 -3 -3
-6 -2 -6 4 0 5 -7 10 -15 11 -8 1 -22 3 -30 4 -8 1 -15 5 -15 10 0 4 -8 8 -19
8 -10 0 -35 7 -55 15 -20 8 -36 12 -36 9 0 -4 -6 -2 -13 4 -7 6 -24 13 -37 15
-14 2 -32 7 -40 10 -8 3 -33 9 -55 13 -22 4 -47 9 -55 11 -8 2 -24 4 -35 6
-11 2 -25 6 -30 9 -6 3 -18 4 -27 3 -10 -2 -18 0 -18 3 0 4 -12 8 -27 8 -31 2
-104 11 -143 19 -117 23 -559 24 -735 1 -148 -20 -225 -32 -257 -42 -17 -5
-47 -12 -88 -20 -14 -3 -34 -8 -45 -11 -11 -4 -26 -8 -32 -10 -7 -2 -19 -5
-25 -7 -7 -2 -28 -7 -46 -11 -18 -4 -35 -11 -38 -16 -2 -4 -11 -6 -19 -2 -8 3
-15 -1 -15 -8 0 -7 -3 -10 -6 -6 -4 3 -29 -3 -58 -14 -28 -11 -56 -21 -63 -23
-7 -1 -16 -5 -19 -9 -4 -4 -16 -7 -26 -7 -10 0 -18 -4 -18 -10 0 -5 -8 -10
-17 -10 -10 0 -33 -9 -50 -20 -18 -11 -33 -17 -33 -15 0 3 -18 -4 -40 -15 -75
-38 -90 -42 -87 -21 2 11 9 26 16 35 7 8 14 21 15 29 1 8 9 22 19 31 9 10 17
21 17 25 0 16 98 105 160 145 76 49 166 88 340 147 68 23 138 50 156 59 21 13
63 20 135 24 57 3 115 8 128 10 13 3 49 8 80 12 31 3 59 8 62 10 24 14 258 22
322 10 25 -4 55 -1 84 9 39 13 51 13 101 1 56 -14 137 -30 217 -41 23 -3 52
-7 65 -10 14 -3 41 -8 60 -11 85 -16 210 -71 300 -134 20 -13 39 -16 92 -12
64 4 68 3 113 -31 48 -37 102 -58 197 -77 59 -12 123 -47 260 -143 46 -31 120
-82 165 -111 170 -112 293 -216 500 -424 197 -198 339 -372 407 -502 51 -95
76 -130 174 -239 32 -36 52 -83 52 -126 0 -30 4 -38 28 -46 15 -5 36 -23 46
-39 9 -17 24 -30 32 -30 8 0 14 -3 14 -8 0 -4 16 -16 35 -26 19 -11 35 -24 35
-29 0 -6 3 -8 6 -4 5 5 34 -16 73 -53 22 -21 43 -19 47 5 11 64 16 112 18 153
l1 47 71 35 c109 54 115 60 104 101 -17 60 -39 96 -77 130 -67 58 -72 101 -27
249 36 118 36 112 -7 154 -35 36 -37 40 -24 60 8 11 15 27 15 36 0 15 -68 58
-100 64 -49 9 -79 21 -110 46 -21 16 -48 27 -68 28 -94 2 -182 46 -317 155
-55 45 -104 85 -110 89 -5 5 -21 17 -35 29 -59 49 -85 59 -118 47 -25 -10 -40
-8 -86 7 -61 21 -70 39 -36 70 24 21 26 48 5 65 -8 7 -15 20 -15 30 0 19 -36
30 -100 30 -37 0 -58 -19 -44 -41 7 -13 5 -12 -72 16 -134 50 -142 54 -146 90
-2 19 2 41 9 51 7 9 10 21 7 26 -9 14 -196 135 -261 168 -62 31 -73 46 -52 67
6 6 9 23 5 36 -6 26 -35 41 -101 52 -42 7 -75 29 -75 51 0 7 14 26 31 43 36
37 31 50 -35 81 -23 11 -54 28 -71 40 -16 11 -42 20 -56 20 -14 0 -61 18 -104
41 -120 63 -185 79 -402 94 -89 6 -110 10 -203 31 -63 15 -341 -3 -486 -30
-10 -2 -41 -7 -68 -10 -41 -6 -318 -57 -441 -81 -64 -13 -263 -46 -310 -51
-77 -9 -125 -20 -185 -42 -30 -11 -77 -23 -105 -26 -27 -3 -72 -8 -100 -11
-91 -12 -95 -11 -95 24 0 60 -58 58 -125 -6 -61 -59 -97 -83 -122 -83 -32 0
-73 43 -73 76 0 29 52 120 101 174 31 35 62 94 93 181 10 29 36 64 71 98 49
48 76 93 63 107 -10 10 -44 11 -81 3z"/>
<path d="M10361 12180 c11 -30 29 -41 29 -17 -1 13 -24 47 -33 47 -3 0 -1 -13
4 -30z"/>
<path d="M11150 11621 c0 -16 25 -28 44 -21 17 6 16 8 -12 18 -18 6 -32 7 -32
3z"/>
<path d="M12290 11419 c-19 -45 0 -95 70 -181 33 -40 60 -78 60 -84 0 -5 20
-25 45 -44 46 -34 46 -35 59 -134 3 -21 15 -49 26 -61 12 -13 30 -49 40 -81
18 -59 30 -89 58 -154 9 -19 17 -40 18 -45 1 -6 16 -42 34 -79 58 -125 114
-282 126 -356 6 -30 41 -62 63 -56 9 2 26 7 39 11 18 5 25 2 29 -14 3 -11 9
-19 12 -16 4 2 23 7 42 10 18 3 36 11 40 16 10 18 -6 80 -49 179 -22 52 -63
151 -92 220 -85 205 -192 400 -260 472 -11 12 -20 26 -20 32 0 5 -9 20 -21 32
-11 12 -28 36 -37 53 -9 17 -52 82 -94 145 -111 163 -162 200 -188 135z"/>
<path d="M3895 9953 c-305 -28 -609 -173 -826 -394 -171 -175 -301 -420 -355
-669 -26 -120 -26 -411 -1 -528 28 -125 52 -195 112 -317 73 -150 159 -268
286 -388 220 -211 489 -332 787 -356 405 -33 774 101 1058 384 193 192 318
426 371 693 26 132 23 385 -6 522 -119 560 -596 992 -1162 1050 -97 10 -179
11 -264 3z m342 -453 c202 -52 405 -193 523 -365 48 -69 108 -202 131 -290 32
-117 32 -318 1 -434 -135 -501 -628 -788 -1120 -651 -265 74 -498 290 -593
551 -96 261 -74 524 62 766 60 106 225 272 329 330 87 49 227 98 320 112 89
14 253 4 347 -19z"/>
<path d="M5520 8625 l0 -1275 215 0 215 0 2 894 3 893 704 -893 705 -894 193
0 193 0 0 1275 0 1275 -215 0 -215 0 -2 -888 -3 -888 -703 888 -704 888 -194
0 -194 0 0 -1275z"/>
<path d="M8023 9838 c25 -35 230 -324 456 -642 l411 -579 0 -634 0 -633 215 0
215 0 0 640 0 641 434 608 c238 334 441 620 451 634 l17 27 -263 0 -264 -1
-295 -414 c-162 -228 -297 -415 -300 -415 -3 0 -137 187 -299 415 l-294 415
-264 0 -264 0 44 -62z"/>
<path d="M10360 8626 l0 -1276 215 0 215 0 0 425 0 425 154 0 154 0 318 -425
319 -425 268 0 c212 0 267 3 261 13 -7 10 -322 427 -598 791 -50 66 -86 121
-81 123 6 2 47 24 93 50 134 75 224 176 306 340 49 98 66 171 73 313 9 202
-17 343 -93 493 -95 190 -269 323 -517 394 l-92 27 -497 4 -498 3 0 -1275z
m945 829 c96 -25 142 -51 210 -116 91 -87 109 -137 109 -289 -1 -149 -21 -206
-104 -291 -107 -110 -183 -129 -500 -129 l-230 0 0 420 0 420 228 0 c173 0
242 -4 287 -15z"/>
<path d="M12350 8625 l0 -1275 215 0 215 0 0 1275 0 1275 -215 0 -215 0 0
-1275z"/>
<path d="M13050 8625 l0 -1275 220 0 220 0 0 428 0 428 44 49 45 50 49 -50
c27 -27 232 -242 456 -477 l408 -428 296 0 296 0 -60 63 c-274 281 -1145 1210
-1142 1217 3 7 305 342 951 1052 l198 218 -293 0 -293 -1 -475 -521 -475 -522
-3 522 -2 522 -220 0 -220 0 0 -1275z"/>
<path d="M6185 7345 c-3 -22 -8 -49 -10 -60 -2 -11 -4 -25 -4 -31 -1 -6 -14
-27 -31 -45 -16 -19 -30 -36 -30 -39 0 -10 -57 -40 -64 -33 -3 3 -6 1 -6 -6 0
-7 -4 -9 -10 -6 -5 3 -15 3 -22 -1 -20 -13 -57 -16 -190 -17 l-127 -2 21 -35
c132 -219 332 -472 551 -696 264 -271 316 -319 492 -449 225 -167 409 -276
558 -330 115 -41 149 -58 197 -95 19 -15 46 -31 60 -34 14 -4 93 -29 175 -55
244 -79 392 -120 475 -135 19 -3 46 -8 60 -11 14 -3 57 -8 95 -11 45 -4 73
-11 78 -20 5 -9 26 -14 60 -14 29 0 84 -5 122 -10 39 -5 97 -12 130 -16 33 -4
195 -7 360 -8 268 -1 371 3 540 19 28 3 89 7 137 10 93 4 108 8 108 29 0 10
17 12 69 10 65 -3 74 0 178 50 67 32 108 57 105 64 -8 24 8 62 26 62 20 0 108
44 237 118 128 74 186 87 258 57 39 -16 47 -12 47 22 0 81 106 162 253 194 45
10 61 18 67 35 5 13 24 27 47 35 32 10 109 73 156 127 47 54 56 59 162 85 124
31 188 64 211 108 l16 31 23 -22 c17 -16 33 -21 61 -18 39 3 42 6 188 178 25
29 163 215 253 340 34 47 86 132 117 190 30 58 70 125 88 150 l34 45 -86 3
c-47 1 -98 2 -115 2 -16 0 -130 -1 -253 -3 l-223 -2 -49 -102 c-58 -119 -105
-173 -153 -173 -30 0 -37 -7 -102 -110 -143 -226 -172 -266 -244 -342 -72 -76
-73 -79 -61 -107 15 -38 7 -51 -35 -51 -49 0 -142 -74 -305 -241 -128 -131
-140 -140 -225 -179 -158 -71 -179 -84 -232 -136 -36 -36 -63 -54 -89 -59 -51
-9 -107 -39 -153 -81 l-39 -34 -52 35 c-29 19 -59 35 -69 36 -9 0 -29 2 -44 4
-40 5 -64 -23 -65 -75 -1 -23 -6 -48 -13 -56 -21 -26 -178 -61 -354 -79 -73
-8 -177 -31 -223 -51 -28 -11 -41 -12 -67 -2 -26 9 -40 8 -63 -1 -28 -12 -143
-9 -232 4 -14 3 -47 7 -75 10 -43 5 -311 58 -355 69 -448 121 -857 317 -1190
570 -139 106 -190 150 -192 165 0 9 -1 26 -2 38 -1 12 -5 25 -10 30 -6 5 -6 2
-1 -7 5 -8 4 -12 0 -7 -11 10 -18 50 -8 45 49 -23 63 -33 63 -40 0 -4 7 -8 15
-8 8 0 23 -8 33 -18 17 -17 37 -28 55 -31 4 0 17 -10 29 -21 12 -11 25 -20 30
-20 4 0 10 0 13 0 3 0 15 -9 27 -19 11 -11 24 -18 28 -16 4 3 13 -2 20 -9 6
-8 24 -18 40 -21 16 -3 34 -13 41 -21 6 -8 19 -14 28 -14 9 0 22 -5 29 -12 6
-6 17 -13 24 -14 7 -1 34 -12 60 -23 26 -12 49 -21 50 -21 2 1 16 -5 32 -14
16 -8 33 -13 38 -10 4 3 8 1 8 -4 0 -5 6 -9 13 -9 6 0 42 -12 80 -26 37 -15
69 -26 72 -27 3 0 6 0 8 -1 12 -4 44 -10 55 -11 6 -1 12 -4 12 -8 0 -3 8 -6
18 -7 35 -4 71 -11 81 -18 11 -6 31 -11 86 -20 17 -3 44 -8 60 -12 17 -3 37
-7 45 -8 8 -2 37 -6 65 -10 27 -4 61 -9 75 -11 117 -16 482 -22 610 -10 72 7
145 15 195 21 37 5 51 8 115 20 52 11 86 16 110 20 14 2 42 10 62 18 20 8 38
13 41 11 2 -3 17 1 33 7 16 7 38 14 49 16 29 7 38 9 57 17 9 4 22 9 30 10 7 2
26 8 41 14 16 7 30 12 32 12 2 0 16 5 32 12 15 7 33 13 38 13 10 2 33 12 208
92 42 20 77 40 77 45 0 5 5 6 10 3 6 -3 10 -1 10 4 0 6 3 11 8 10 15 -2 52 14
52 23 0 5 5 6 10 3 6 -3 10 -1 10 4 0 6 6 11 13 11 7 0 22 8 33 18 11 9 26 18
34 20 8 2 16 8 18 13 2 5 10 9 18 9 8 0 14 5 14 11 0 5 5 7 10 4 6 -3 13 1 16
9 3 9 12 16 20 16 8 0 14 5 14 12 0 6 3 9 6 5 6 -6 76 41 82 56 2 4 8 7 14 7
5 0 16 6 23 13 17 15 25 21 93 72 28 21 52 43 52 48 0 4 5 5 10 2 6 -3 10 1
10 10 0 9 4 14 9 11 4 -3 28 17 52 44 24 28 48 50 52 50 5 0 36 28 70 62 34
34 56 58 48 53 -10 -5 -12 -4 -7 3 4 7 14 12 23 12 9 0 14 3 11 6 -3 3 13 23
36 46 22 22 34 36 26 32 -8 -4 1 9 20 29 53 56 70 76 69 84 0 3 6 10 15 15 9
5 16 16 16 23 0 8 4 15 9 15 7 0 57 68 64 87 1 4 12 17 25 30 12 12 22 29 22
38 0 8 5 15 10 15 6 0 10 7 10 15 0 9 7 18 15 21 8 4 13 10 10 14 -3 4 3 18
13 31 24 34 39 58 59 99 9 19 20 37 25 40 4 3 -6 20 -22 38 -16 18 -26 32 -22
32 3 0 1 5 -6 12 -9 9 -67 13 -202 13 -164 1 -190 -1 -191 -15 0 -8 -2 -22 -4
-30 -5 -20 -16 -72 -19 -87 -1 -7 -10 -21 -21 -33 -10 -11 -15 -20 -12 -20 4
0 -1 -8 -10 -19 -10 -10 -20 -18 -23 -17 -3 0 -17 -7 -31 -17 -15 -10 -36 -19
-47 -22 -11 -2 -35 -7 -53 -12 -38 -10 -445 -8 -496 3 -33 6 -43 2 -93 -48
-16 -16 -31 -28 -34 -28 -4 0 -17 -10 -30 -22 -39 -38 -66 -58 -66 -50 -1 4
-9 -3 -20 -16 -10 -13 -22 -22 -25 -21 -4 0 -18 -8 -31 -20 -13 -11 -27 -22
-32 -22 -19 -4 -52 -23 -52 -31 0 -4 -7 -8 -15 -8 -8 0 -15 -4 -15 -10 0 -5
-3 -9 -7 -8 -13 3 -63 -25 -63 -34 0 -5 -4 -7 -9 -3 -5 3 -17 -3 -27 -12 -10
-10 -19 -17 -21 -15 -2 1 -24 -6 -49 -18 -26 -11 -50 -20 -55 -20 -5 0 -9 -4
-9 -10 0 -5 -3 -9 -7 -8 -5 0 -17 -2 -28 -6 -11 -4 -33 -13 -50 -19 -16 -6
-34 -12 -40 -13 -5 -1 -23 -7 -40 -14 -16 -6 -31 -11 -32 -11 -2 0 -17 -5 -35
-10 -31 -9 -49 -14 -88 -24 -8 -2 -17 -4 -20 -5 -3 -1 -9 -3 -15 -5 -5 -1 -12
-3 -15 -4 -5 -3 -15 -4 -85 -15 -22 -3 -51 -8 -65 -11 -55 -12 -163 -18 -325
-19 -175 0 -286 9 -379 31 -11 2 -30 6 -41 8 -11 1 -40 8 -65 15 -25 7 -56 14
-69 17 -13 2 -32 8 -43 14 -10 5 -22 8 -27 5 -5 -3 -14 1 -21 9 -7 8 -16 12
-21 9 -5 -2 -21 3 -36 13 -15 10 -24 13 -20 6 4 -6 -12 -2 -35 10 -24 11 -48
22 -54 23 -7 1 -35 13 -63 28 -28 14 -51 22 -51 18 0 -4 -4 -2 -8 3 -4 6 -28
20 -54 33 -26 13 -50 27 -53 33 -4 5 -11 7 -16 4 -5 -4 -9 -1 -9 5 0 6 -4 8
-10 5 -5 -3 -10 -1 -10 5 0 6 -4 8 -10 5 -5 -3 -10 -2 -10 4 0 5 -22 22 -50
38 -27 15 -50 31 -50 36 0 4 -6 7 -13 7 -8 0 -22 9 -32 20 -10 11 -20 18 -22
16 -2 -2 -14 6 -27 18 -12 11 -32 28 -45 36 -13 8 -37 29 -55 45 -17 17 -35
31 -41 32 -56 8 -74 12 -97 22 -16 6 -28 8 -28 6 0 -3 -8 3 -18 13 -11 9 -28
24 -38 33 -26 21 -64 67 -64 77 0 4 -8 15 -17 24 -35 34 -53 55 -53 62 0 4 -8
15 -17 24 -15 15 -57 17 -434 17 l-417 0 -7 -40z"/>
</g>
</svg>
